<?xml version="1.0" encoding="UTF-8" standalone="no"?>
<!-- Created with Inkscape (http://www.inkscape.org/) -->

<svg
   xmlns:dc="http://purl.org/dc/elements/1.1/"
   xmlns:cc="http://creativecommons.org/ns#"
   xmlns:rdf="http://www.w3.org/1999/02/22-rdf-syntax-ns#"
   xmlns:svg="http://www.w3.org/2000/svg"
   xmlns="http://www.w3.org/2000/svg"
   xmlns:sodipodi="http://sodipodi.sourceforge.net/DTD/sodipodi-0.dtd"
   xmlns:inkscape="http://www.inkscape.org/namespaces/inkscape"
   width="69mm"
   height="50mm"
   viewBox="0 0 69 50"
   version="1.1"
   id="svg2590"
   inkscape:version="0.92.2 (5c3e80d, 2017-08-06)"
   sodipodi:docname="logo.svg"
   inkscape:export-filename="/home/tim/go/src/github.com/timdrysdale/ua/img/logo.png"
   inkscape:export-xdpi="79.93"
   inkscape:export-ydpi="79.93">
  <defs
     id="defs2584">
    <marker
       inkscape:isstock="true"
       style="overflow:visible"
       id="marker11864"
       refX="0"
       refY="0"
       orient="auto"
       inkscape:stockid="Arrow1Mend">
      <path
         transform="matrix(-0.4,0,0,-0.4,-4,0)"
         style="fill:#086788;fill-opacity:1;fill-rule:evenodd;stroke:#086788;stroke-width:1.00000003pt;stroke-opacity:1"
         d="M 0,0 5,-5 -12.5,0 5,5 Z"
         id="path11862"
         inkscape:connector-curvature="0" />
    </marker>
    <marker
       inkscape:stockid="Arrow1Mend"
       orient="auto"
       refY="0"
       refX="0"
       id="marker11638"
       style="overflow:visible"
       inkscape:isstock="true">
      <path
         inkscape:connector-curvature="0"
         id="path11636"
         d="M 0,0 5,-5 -12.5,0 5,5 Z"
         style="fill:#f09308;fill-opacity:1;fill-rule:evenodd;stroke:#f09208;stroke-width:1.00000003pt;stroke-opacity:0.96470588"
         transform="matrix(-0.4,0,0,-0.4,-4,0)" />
    </marker>
    <marker
       inkscape:isstock="true"
       style="overflow:visible"
       id="marker11184"
       refX="0"
       refY="0"
       orient="auto"
       inkscape:stockid="Arrow1Mend">
      <path
         inkscape:connector-curvature="0"
         transform="matrix(-0.4,0,0,-0.4,-4,0)"
         style="fill:#f09308;fill-opacity:1;fill-rule:evenodd;stroke:#f09208;stroke-width:1.00000003pt;stroke-opacity:0.96470588"
         d="M 0,0 5,-5 -12.5,0 5,5 Z"
         id="path11182" />
    </marker>
    <marker
       inkscape:isstock="true"
       style="overflow:visible"
       id="marker10964"
       refX="0"
       refY="0"
       orient="auto"
       inkscape:stockid="Arrow1Mend">
      <path
         inkscape:connector-curvature="0"
         transform="matrix(-0.4,0,0,-0.4,-4,0)"
         style="fill:#f09308;fill-opacity:1;fill-rule:evenodd;stroke:#f09208;stroke-width:1.00000003pt;stroke-opacity:0.96470588"
         d="M 0,0 5,-5 -12.5,0 5,5 Z"
         id="path10962" />
    </marker>
    <marker
       inkscape:stockid="Arrow1Mend"
       orient="auto"
       refY="0"
       refX="0"
       id="marker10540"
       style="overflow:visible"
       inkscape:isstock="true">
      <path
         inkscape:connector-curvature="0"
         id="path10538"
         d="M 0,0 5,-5 -12.5,0 5,5 Z"
         style="fill:#dd1c1a;fill-opacity:1;fill-rule:evenodd;stroke:#dd1c1a;stroke-width:1.00000003pt;stroke-opacity:1"
         transform="matrix(-0.4,0,0,-0.4,-4,0)" />
    </marker>
    <marker
       inkscape:stockid="Arrow1Mend"
       orient="auto"
       refY="0"
       refX="0"
       id="marker9430"
       style="overflow:visible"
       inkscape:isstock="true">
      <path
         inkscape:connector-curvature="0"
         id="path9428"
         d="M 0,0 5,-5 -12.5,0 5,5 Z"
         style="fill:#dd1c1a;fill-opacity:1;fill-rule:evenodd;stroke:#dd1c1a;stroke-width:1.00000003pt;stroke-opacity:1"
         transform="matrix(-0.4,0,0,-0.4,-4,0)" />
    </marker>
    <clipPath
       clipPathUnits="userSpaceOnUse"
       id="clipPath5514">
      <g
         id="g5518"
         transform="matrix(0.04193042,0,0,-0.04193042,110.85021,484.16268)"
         style="fill:#000000;stroke:none">
        <path
           id="path5516"
           d="M 5730,11550 C 4629,11464 3824,10884 3323,9815 3032,9194 2859,8502 2725,7420 2647,6783 2629,6680 2574,6543 2366,6023 1725,5734 705,5701 l -210,-6 147,-72 c 779,-380 1355,-409 1827,-90 40,27 71,44 67,38 -13,-21 -207,-143 -297,-188 -278,-136 -597,-190 -976,-165 -102,7 -188,11 -190,8 -11,-11 65,-235 116,-341 180,-374 440,-540 904,-576 73,-6 177,-7 231,-3 l 99,6 -7,-41 c -16,-104 -72,-201 -142,-248 -74,-51 -105,-56 -341,-61 -123,-2 -223,-7 -223,-11 0,-14 203,-222 278,-285 171,-142 388,-265 717,-405 77,-33 133,-62 125,-65 -8,-3 -314,-86 -680,-185 C 1533,2843 1477,2826 1374,2775 919,2549 601,2185 360,1612 299,1467 266,1376 150,1040 102,900 49,749 31,705 14,661 0,616 0,605 0,582 290,322 422,228 468,195 566,138 640,102 L 775,35 3347,30 c 1415,-3 3939,-3 5610,0 2893,5 3040,6 3088,23 141,51 267,128 490,297 77,58 168,125 203,149 44,29 62,48 62,63 0,47 -457,1001 -596,1245 -87,152 -234,375 -320,483 -93,118 -303,323 -401,393 -89,63 -255,153 -343,186 -30,11 -446,118 -925,236 -478,119 -878,218 -888,221 -15,5 0,25 80,107 828,855 1037,2339 627,4452 -125,646 -269,1109 -484,1561 -308,647 -737,1158 -1267,1507 -453,299 -899,462 -1539,562 -215,34 -777,53 -1014,35 z"
           inkscape:connector-curvature="0" />
      </g>
    </clipPath>
  </defs>
  <sodipodi:namedview
     id="base"
     pagecolor="#ffffff"
     bordercolor="#666666"
     borderopacity="1.0"
     inkscape:pageopacity="0.0"
     inkscape:pageshadow="2"
     inkscape:zoom="0.49497475"
     inkscape:cx="314.5378"
     inkscape:cy="410.81232"
     inkscape:document-units="mm"
     inkscape:current-layer="layer1"
     showgrid="false"
     inkscape:window-width="1920"
     inkscape:window-height="1101"
     inkscape:window-x="0"
     inkscape:window-y="28"
     inkscape:window-maximized="1"
     inkscape:snap-global="false" />
  <metadata
     id="metadata2587">
    <rdf:RDF>
      <cc:Work
         rdf:about="">
        <dc:format>image/svg+xml</dc:format>
        <dc:type
           rdf:resource="http://purl.org/dc/dcmitype/StillImage" />
        <dc:title></dc:title>
      </cc:Work>
    </rdf:RDF>
  </metadata>
  <g
     inkscape:label="Layer 1"
     inkscape:groupmode="layer"
     id="layer1"
     transform="translate(0,-247)">
    <g
       id="g2513"
       transform="translate(-390.42963,86.604006)">
      <rect
         id="rect1254"
         height="33.494747"
         width="9.5547619"
         y="193.4126"
         x="466.54242"
         style="fill:#cc1e1e;stroke-width:0.05308201" />
      <rect
         id="rect1256"
         height="33.494747"
         width="9.5547619"
         y="193.4126"
         x="477.13248"
         style="fill:#cc9d1e;stroke-width:0.05308201" />
      <rect
         id="rect1258"
         height="33.494747"
         width="9.5547619"
         y="193.4126"
         x="487.72253"
         style="fill:#cc661e;stroke-width:0.05308201" />
      <rect
         id="rect1260"
         height="33.494747"
         width="9.5547619"
         y="193.4126"
         x="498.31256"
         style="fill:#46627f;stroke-width:0.05308201" />
      <rect
         id="rect1262"
         height="33.494747"
         width="9.5547619"
         y="193.4126"
         x="508.90262"
         style="fill:#7f3352;stroke-width:0.05308201" />
      <rect
         y="193.33438"
         x="519.49268"
         height="33.572968"
         width="9.1705885"
         id="rect2446"
         style="opacity:1;fill:#337f4d;fill-opacity:1;stroke:none;stroke-width:7.37082577;stroke-miterlimit:4;stroke-dasharray:none;stroke-dashoffset:0;stroke-opacity:1" />
      <rect
         style="opacity:1;fill:#3e9c5e;fill-opacity:1;stroke:none;stroke-width:7.37082577;stroke-miterlimit:4;stroke-dasharray:none;stroke-dashoffset:0;stroke-opacity:1"
         id="rect2450"
         width="9.1705885"
         height="33.572968"
         x="519.4928"
         y="158.63048" />
      <rect
         style="fill:#e13131;fill-opacity:1;stroke-width:0.05308201"
         x="466.54242"
         y="158.70869"
         width="9.5547619"
         height="33.494747"
         id="rect2452" />
      <rect
         style="fill:#e1b131;fill-opacity:1;stroke-width:0.05308201"
         x="477.09409"
         y="158.70869"
         width="9.5547619"
         height="33.494747"
         id="rect2454" />
      <rect
         style="fill:#e17a31;fill-opacity:1;stroke-width:0.05308201"
         x="487.64572"
         y="158.70869"
         width="9.5547619"
         height="33.494747"
         id="rect2456" />
      <rect
         style="fill:#547598;fill-opacity:1;stroke-width:0.05308201"
         x="498.19745"
         y="158.70869"
         width="9.5547619"
         height="33.494747"
         id="rect2458" />
      <rect
         style="fill:#9c3e64;fill-opacity:1;stroke-width:0.05308201"
         x="508.74908"
         y="158.70869"
         width="9.5547619"
         height="33.494747"
         id="rect2460" />
    </g>
    <g
       id="g13132"
       transform="translate(-35.280509,177.38577)">
      <path
         inkscape:connector-curvature="0"
         id="circle6527"
         d="m 48.376836,69.496538 a 7.9692778,7.9692778 0 0 0 -7.96937,7.96936 7.9692778,7.9692778 0 0 0 0.37662,2.38957 7.9692778,7.9692778 0 0 0 -5.82912,7.67705 7.9692778,7.9692778 0 0 0 7.29166,7.93514 7.9692778,7.9692778 0 0 0 -0.58028,2.96986 7.9692778,7.9692778 0 0 0 7.96937,7.969372 7.9692778,7.9692778 0 0 0 4.77741,-1.60127 7.9692778,7.9692778 0 0 0 6.966833,4.11726 7.9692778,7.9692778 0 0 0 6.797382,-3.82842 7.9692778,7.9692778 0 0 0 4.945976,1.73205 7.9692778,7.9692778 0 0 0 7.969387,-7.969372 7.9692778,7.9692778 0 0 0 -0.56449,-2.93914 7.9692778,7.9692778 0 0 0 3.08134,-6.28912 7.9692778,7.9692778 0 0 0 -5.77994,-7.65509 7.9692778,7.9692778 0 0 0 0.50743,-2.77146 7.9692778,7.9692778 0 0 0 -7.969377,-7.96934 7.9692778,7.9692778 0 0 0 -7.281127,4.74403 7.9692778,7.9692778 0 0 0 -6.320694,-3.12525 7.9692778,7.9692778 0 0 0 -1.75576,0.20631 7.9692778,7.9692778 0 0 0 -6.63325,-3.56154 z m 0.12029,1.26063 c 2.48721,0.003 4.80811,1.3226 6.18377,3.39474 0.53681,-0.12466 1.60499,-0.26373 2.15607,-0.26686 2.31045,0.003 5.15587,1.52392 6.263634,3.87758 1.189123,-2.68685 3.849547,-5.45815 6.787747,-5.46042 4.103394,-4e-5 7.504147,3.104 7.504117,7.20739 -0.003,0.88255 -0.45913,2.05397 -0.76903,2.8803 3.18707,0.91062 6.20081,4.19301 6.20394,7.50761 -0.001,2.29304 -1.87776,4.53066 -3.68882,5.93711 0.3469,0.87193 1.11928,1.9498 1.12017,2.88821 6e-5,4.103392 -3.47532,7.133682 -7.57871,7.133622 -1.675114,-0.003 -3.52256,-0.94306 -4.833603,-1.98576 -1.345831,2.21304 -4.043081,4.30765 -6.633235,4.31126 -2.70195,-0.003 -5.48613,-2.36291 -6.79215,-4.72826 -1.28412,0.96623 -2.69807,2.23151 -4.3051,2.2342 -4.10339,6e-5 -7.6525,-3.32695 -7.65245,-7.430342 0.003,-0.949 0.259,-2.40773 0.61452,-3.28765 -3.84259,-0.32793 -7.09144,-3.54132 -7.09414,-7.39788 -2.2e-4,-3.33506 2.88958,-6.41006 6.10213,-7.30568 -0.22972,-0.72042 -0.64472,-1.84239 -0.64787,-2.59852 -5e-5,-4.10341 2.9556,-6.9107 7.05901,-6.91065 z"
         style="opacity:1;fill:#dd1c1a;fill-opacity:1;stroke:none;stroke-width:0.2107816;stroke-miterlimit:4;stroke-dasharray:none;stroke-opacity:1" />
      <rect
         ry="2.4643958"
         y="79.651161"
         x="51.050133"
         height="32.574062"
         width="39.309525"
         id="rect8436"
         style="opacity:1;fill:#3e9c5e;fill-opacity:1;stroke:#ffffff;stroke-width:1;stroke-miterlimit:4;stroke-dasharray:none;stroke-dashoffset:0;stroke-opacity:1" />
      <g
         id="g13068"
         transform="matrix(0.05578597,0,0,0.05779302,67.952143,91.972947)"
         clip-path="url(#clipPath5514)"
         style="fill:#ffffff;fill-opacity:1;stroke:#ffffff;stroke-width:0.63401902;stroke-miterlimit:4;stroke-dasharray:none;stroke-opacity:1">
        <path
           id="path13052"
           d="M 0,0 H 777 V 480 H 0 Z"
           inkscape:connector-curvature="0"
           style="fill:#ffffff;fill-opacity:1;stroke:#ffffff;stroke-width:0.63401902;stroke-miterlimit:4;stroke-dasharray:none;stroke-opacity:1" />
        <path
           id="path13054"
           d="M 0,0 H 777 V 420 H 0 Z"
           inkscape:connector-curvature="0"
           style="fill:#ffffff;fill-opacity:1;stroke:#ffffff;stroke-width:0.63401902;stroke-miterlimit:4;stroke-dasharray:none;stroke-opacity:1" />
        <path
           id="path13056"
           d="M 0,0 H 777 V 360 H 0 Z"
           inkscape:connector-curvature="0"
           style="fill:#ffffff;fill-opacity:1;stroke:#ffffff;stroke-width:0.63401902;stroke-miterlimit:4;stroke-dasharray:none;stroke-opacity:1" />
        <path
           id="path13058"
           d="M 0,0 H 777 V 300 H 0 Z"
           inkscape:connector-curvature="0"
           style="fill:#ffffff;fill-opacity:1;stroke:#ffffff;stroke-width:0.63401902;stroke-miterlimit:4;stroke-dasharray:none;stroke-opacity:1" />
        <path
           id="path13060"
           d="M 0,0 H 777 V 240 H 0 Z"
           inkscape:connector-curvature="0"
           style="fill:#ffffff;fill-opacity:1;stroke:#ffffff;stroke-width:0.63401902;stroke-miterlimit:4;stroke-dasharray:none;stroke-opacity:1" />
        <path
           id="path13062"
           d="M 0,0 H 777 V 180 H 0 Z"
           inkscape:connector-curvature="0"
           style="fill:#ffffff;fill-opacity:1;stroke:#ffffff;stroke-width:0.63401902;stroke-miterlimit:4;stroke-dasharray:none;stroke-opacity:1" />
        <path
           id="path13064"
           d="M 0,0 H 777 V 120 H 0 Z"
           inkscape:connector-curvature="0"
           style="fill:#ffffff;fill-opacity:1;stroke:#ffffff;stroke-width:0.63401902;stroke-miterlimit:4;stroke-dasharray:none;stroke-opacity:1" />
        <path
           id="path13066"
           d="M 0,0 H 777 V 60 H 0 Z"
           inkscape:connector-curvature="0"
           style="fill:#ffffff;fill-opacity:1;stroke:#ffffff;stroke-width:0.63401902;stroke-miterlimit:4;stroke-dasharray:none;stroke-opacity:1" />
      </g>
      <g
         style="stroke:#ffffff;stroke-width:0.64942271;stroke-miterlimit:4;stroke-dasharray:none;stroke-opacity:1"
         clip-path="url(#clipPath5514)"
         transform="matrix(0.05543385,0,0,0.05543385,68.709331,92.784834)"
         id="g50208">
        <path
           style="fill:#750787;stroke:#ffffff;stroke-width:0.64942271;stroke-miterlimit:4;stroke-dasharray:none;stroke-opacity:1"
           inkscape:connector-curvature="0"
           d="M 0,0 H 777 V 480 H 0 Z"
           id="path50192" />
        <path
           style="fill:#004dff;stroke:#ffffff;stroke-width:0.64942271;stroke-miterlimit:4;stroke-dasharray:none;stroke-opacity:1"
           inkscape:connector-curvature="0"
           d="M 0,0 H 777 V 420 H 0 Z"
           id="path50194" />
        <path
           style="fill:#008026;stroke:#ffffff;stroke-width:0.64942271;stroke-miterlimit:4;stroke-dasharray:none;stroke-opacity:1"
           inkscape:connector-curvature="0"
           d="M 0,0 H 777 V 360 H 0 Z"
           id="path50196" />
        <path
           style="fill:#ffed00;stroke:#ffffff;stroke-width:0.64942271;stroke-miterlimit:4;stroke-dasharray:none;stroke-opacity:1"
           inkscape:connector-curvature="0"
           d="M 0,0 H 777 V 300 H 0 Z"
           id="path50198" />
        <path
           style="fill:#ff8c00;stroke:#ffffff;stroke-width:0.64942271;stroke-miterlimit:4;stroke-dasharray:none;stroke-opacity:1"
           inkscape:connector-curvature="0"
           d="M 0,0 H 777 V 240 H 0 Z"
           id="path50200" />
        <path
           style="fill:#e40303;stroke:#ffffff;stroke-width:0.64942271;stroke-miterlimit:4;stroke-dasharray:none;stroke-opacity:1"
           inkscape:connector-curvature="0"
           d="M 0,0 H 777 V 180 H 0 Z"
           id="path50202" />
        <path
           style="fill:#784f17;stroke:#ffffff;stroke-width:0.64942271;stroke-miterlimit:4;stroke-dasharray:none;stroke-opacity:1"
           inkscape:connector-curvature="0"
           d="M 0,0 H 777 V 120 H 0 Z"
           id="path50204" />
        <path
           style="stroke:#ffffff;stroke-width:0.64942271;stroke-miterlimit:4;stroke-dasharray:none;stroke-opacity:1"
           inkscape:connector-curvature="0"
           d="M 0,0 H 777 V 60 H 0 Z"
           id="path50206" />
      </g>
      <text
         id="text13072"
         y="99.129463"
         x="58.775299"
         style="font-style:normal;font-variant:normal;font-weight:normal;font-stretch:normal;font-size:4.23333311px;line-height:1.25;font-family:Comfortaa;-inkscape-font-specification:Comfortaa;letter-spacing:0px;word-spacing:0px;fill:#000000;fill-opacity:1;stroke:none;stroke-width:0.26458332"
         xml:space="preserve"><tspan
           style="font-size:14.11111069px;fill:#ffffff;stroke-width:0.26458332"
           y="99.129463"
           x="58.775299"
           id="tspan13070"
           sodipodi:role="line">ua</tspan></text>
    </g>
  </g>
</svg>
